<svg version="1.1" viewBox="0.0 0.0 224.0 82.0" fill="none" stroke="none" stroke-linecap="square" stroke-miterlimit="10" xmlns:xlink="http://www.w3.org/1999/xlink" xmlns="http://www.w3.org/2000/svg"><clipPath id="p.0"><path d="m0 0l224.0 0l0 82.0l-224.0 0l0 -82.0z" clip-rule="nonzero"/></clipPath><g clip-path="url(#p.0)"><path fill="#ffffff" d="m0 0l224.0 0l0 82.0l-224.0 0z" fill-rule="evenodd"/><path fill="#a1caf1" d="m0.62729657 37.85302l0 0c0 -20.447582 16.57604 -37.023624 37.02362 -37.023624l0 0c9.819275 0 19.236382 3.900692 26.179657 10.843967c6.9432755 6.9432764 10.843964 16.360378 10.843964 26.179657l0 0c0 20.447582 -16.576038 37.02362 -37.02362 37.02362l0 0c-20.44758 0 -37.02362 -16.576038 -37.02362 -37.02362z" fill-rule="evenodd"/><path stroke="#a1caf1" stroke-width="1.0" stroke-linejoin="round" stroke-linecap="butt" d="m0.62729657 37.85302l0 0c0 -20.447582 16.57604 -37.023624 37.02362 -37.023624l0 0c9.819275 0 19.236382 3.900692 26.179657 10.843967c6.9432755 6.9432764 10.843964 16.360378 10.843964 26.179657l0 0c0 20.447582 -16.576038 37.02362 -37.02362 37.02362l0 0c-20.44758 0 -37.02362 -16.576038 -37.02362 -37.02362z" fill-rule="evenodd"/><path fill="#6ca0dc" d="m33.12861 56.25197l0 0c0 -13.872349 11.245762 -25.11811 25.11811 -25.11811l0 0c6.6617355 0 13.050629 2.6463661 17.761185 7.356926c4.7105637 4.71056 7.356926 11.099449 7.356926 17.761185l0 0c0 13.872353 -11.245758 25.11811 -25.11811 25.11811l0 0c-13.872349 0 -25.11811 -11.245758 -25.11811 -25.11811z" fill-rule="evenodd"/><path stroke="#6ca0dc" stroke-width="1.0" stroke-linejoin="round" stroke-linecap="butt" d="m33.12861 56.25197l0 0c0 -13.872349 11.245762 -25.11811 25.11811 -25.11811l0 0c6.6617355 0 13.050629 2.6463661 17.761185 7.356926c4.7105637 4.71056 7.356926 11.099449 7.356926 17.761185l0 0c0 13.872353 -11.245758 25.11811 -25.11811 25.11811l0 0c-13.872349 0 -25.11811 -11.245758 -25.11811 -25.11811z" fill-rule="evenodd"/><path fill="#000000" fill-opacity="0.0" d="m85.20473 11.110236l150.86613 0l0 59.779526l-150.86613 0z" fill-rule="evenodd"/><path fill="#6ca0dc" d="m104.73598 52.344612q-2.5625 0 -4.59375 -0.828125q-2.03125 -0.84375 -3.25 -2.46875q-1.21875 -1.640625 -1.28125 -3.9375l6.0625 0q0.125 1.296875 0.890625 1.984375q0.765625 0.6875 2.0 0.6875q1.265625 0 2.0 -0.578125q0.734375 -0.59375 0.734375 -1.625q0 -0.875 -0.578125 -1.4375q-0.578125 -0.5625 -1.4375 -0.921875q-0.84375 -0.375 -2.40625 -0.84375q-2.265625 -0.703125 -3.703125 -1.390625q-1.4375 -0.703125 -2.46875 -2.0625q-1.03125 -1.375 -1.03125 -3.578125q0 -3.265625 2.359375 -5.109375q2.375 -1.859375 6.171875 -1.859375q3.859375 0 6.21875 1.859375q2.375 1.84375 2.546875 5.140625l-6.171875 0q-0.0625 -1.125 -0.828125 -1.765625q-0.765625 -0.65625 -1.96875 -0.65625q-1.03125 0 -1.671875 0.546875q-0.625 0.546875 -0.625 1.578125q0 1.140625 1.0625 1.78125q1.0625 0.625 3.328125 1.359375q2.28125 0.765625 3.6875 1.46875q1.421875 0.6875 2.453125 2.03125q1.03125 1.328125 1.03125 3.421875q0 2.0 -1.015625 3.640625q-1.015625 1.625 -2.953125 2.59375q-1.921875 0.96875 -4.5625 0.96875zm22.403 -5.0625l0 4.828125l-2.90625 0q-3.09375 0 -4.828125 -1.515625q-1.734375 -1.515625 -1.734375 -4.953125l0 -7.390625l-2.265625 0l0 -4.734375l2.265625 0l0 -4.53125l5.703125 0l0 4.53125l3.71875 0l0 4.734375l-3.71875 0l0 7.453125q0 0.84375 0.390625 1.21875q0.40625 0.359375 1.328125 0.359375l2.046875 0zm11.624939 5.09375q-2.734375 0 -4.921875 -1.15625q-2.171875 -1.171875 -3.421875 -3.34375q-1.25 -2.171875 -1.25 -5.0625q0 -2.875 1.265625 -5.046875q1.265625 -2.1875 3.453125 -3.34375q2.203125 -1.171875 4.9375 -1.171875q2.734375 0 4.9375 1.171875q2.203125 1.15625 3.46875 3.34375q1.265625 2.171875 1.265625 5.046875q0 2.859375 -1.28125 5.046875q-1.28125 2.1875 -3.5 3.359375q-2.21875 1.15625 -4.953125 1.15625zm0 -4.9375q1.640625 0 2.78125 -1.1875q1.15625 -1.203125 1.15625 -3.4375q0 -2.234375 -1.125 -3.4375q-1.109375 -1.203125 -2.75 -1.203125q-1.65625 0 -2.765625 1.1875q-1.09375 1.1875 -1.09375 3.453125q0 2.234375 1.078125 3.4375q1.09375 1.1875 2.71875 1.1875zm18.46434 -10.828125q1.0 -1.53125 2.5 -2.40625q1.5 -0.890625 3.328125 -0.890625l0 6.03125l-1.5625 0q-2.140625 0 -3.203125 0.921875q-1.0625 0.90625 -1.0625 3.21875l0 8.625l-5.703125 0l0 -18.59375l5.703125 0l0 3.09375zm26.09253 5.90625q0 0.796875 -0.09375 1.65625l-12.90625 0q0.140625 1.734375 1.125 2.65625q0.984375 0.921875 2.40625 0.921875q2.140625 0 2.96875 -1.8125l6.0625 0q-0.453125 1.84375 -1.671875 3.3125q-1.21875 1.453125 -3.0625 2.296875q-1.828125 0.828125 -4.09375 0.828125q-2.734375 0 -4.875 -1.15625q-2.125 -1.171875 -3.328125 -3.34375q-1.1875 -2.171875 -1.1875 -5.0625q0 -2.90625 1.171875 -5.0625q1.1875 -2.171875 3.3125 -3.328125q2.140625 -1.171875 4.90625 -1.171875q2.703125 0 4.796875 1.140625q2.109375 1.125 3.28125 3.234375q1.1875 2.09375 1.1875 4.890625zm-5.828125 -1.5q0 -1.46875 -1.0 -2.328125q-1.0 -0.875 -2.5 -0.875q-1.4375 0 -2.421875 0.84375q-0.984375 0.828125 -1.21875 2.359375l7.140625 0zm14.53009 -12.296875l0 23.390625l-5.703125 0l0 -23.390625l5.703125 0zm14.503647 18.5625l0 4.828125l-2.90625 0q-3.09375 0 -4.828125 -1.515625q-1.734375 -1.515625 -1.734375 -4.953125l0 -7.390625l-2.265625 0l0 -4.734375l2.265625 0l0 -4.53125l5.703125 0l0 4.53125l3.71875 0l0 4.734375l-3.71875 0l0 7.453125q0 0.84375 0.390625 1.21875q0.40625 0.359375 1.328125 0.359375l2.046875 0z" fill-rule="nonzero"/></g></svg>